<svg xmlns="http://www.w3.org/2000/svg" xmlns:xlink="http://www.w3.org/1999/xlink" version="1.1" viewBox="0 0 172 172"><defs><linearGradient x1="75.25" y1="29.33944" x2="75.25" y2="41.33913" gradientUnits="userSpaceOnUse" id="color-1"><stop offset="0" stop-color="#fcf3fd"/><stop offset="1" stop-color="#6edafc"/></linearGradient><linearGradient x1="75.25" y1="82.50625" x2="75.25" y2="105.89019" gradientUnits="userSpaceOnUse" id="color-2"><stop offset="0" stop-color="#fcf3fd"/><stop offset="1" stop-color="#6edafc"/></linearGradient><linearGradient x1="75.25" y1="18.12719" x2="75.25" y2="147.404" gradientUnits="userSpaceOnUse" id="color-3"><stop offset="0" stop-color="#e090f0"/><stop offset="1" stop-color="#05bdf5"/></linearGradient><linearGradient x1="86" y1="18.12719" x2="86" y2="147.404" gradientUnits="userSpaceOnUse" id="color-4"><stop offset="0" stop-color="#e090f0"/><stop offset="1" stop-color="#05bdf5"/></linearGradient><linearGradient x1="127.65625" y1="18.12719" x2="127.65625" y2="147.404" gradientUnits="userSpaceOnUse" id="color-5"><stop offset="0" stop-color="#e090f0"/><stop offset="1" stop-color="#05bdf5"/></linearGradient></defs><g fill="none" fill-rule="nonzero" stroke="none" stroke-width="1" stroke-linecap="butt" stroke-linejoin="miter" stroke-miterlimit="10" stroke-dasharray="" stroke-dashoffset="0" font-family="none" font-weight="none" font-size="none" text-anchor="none" style="mix-blend-mode: normal"><path d="M0,172v-172h172v172z" fill="none"/><g><path d="M83.3125,40.3125h-16.125c-1.4835,0 -2.6875,-1.204 -2.6875,-2.6875v-5.375c0,-1.4835 1.204,-2.6875 2.6875,-2.6875h16.125c1.4835,0 2.6875,1.204 2.6875,2.6875v5.375c0,1.4835 -1.204,2.6875 -2.6875,2.6875z" fill="url(#color-1)"/><path d="M75.25,83.3125c-5.93669,0 -10.75,4.81331 -10.75,10.75c0,5.93669 4.81331,10.75 10.75,10.75c5.93669,0 10.75,-4.81331 10.75,-10.75c0,-5.93669 -4.81331,-10.75 -10.75,-10.75z" fill="url(#color-2)"/><path d="M112.875,63.00844v-3.88344h-75.25v3.88344v1.49156h75.25z" fill="url(#color-3)"/><path d="M134.375,97.89756v-51.83919c0,-3.526 -1.3545,-6.85581 -3.81625,-9.37938l-16.082,-16.49588c-0.48912,-0.50256 -1.04544,-0.9245 -1.60175,-1.34106v-0.02956h-0.03763c-2.3005,-1.70387 -5.09819,-2.6875 -7.98456,-2.6875h-2.72781h-53.75h-18.8125c-7.40944,0 -13.4375,6.02806 -13.4375,13.4375v96.75c0,7.40944 6.02806,13.4375 13.4375,13.4375h70.45013c4.90469,9.55675 14.83769,16.125 26.29988,16.125c16.29969,0 29.5625,-13.26281 29.5625,-29.5625c0,-13.502 -9.11062,-24.89431 -21.5,-28.41494zM104.8555,21.5c0.90838,0 1.79525,0.18812 2.6445,0.48644v23.70106c0,1.4835 -1.20669,2.6875 -2.6875,2.6875h-3.182c0.301,-0.84387 0.4945,-1.7415 0.4945,-2.6875v-24.1875zM96.75,21.5v24.1875c0,1.4835 -1.20669,2.6875 -2.6875,2.6875h-37.625c-1.48081,0 -2.6875,-1.204 -2.6875,-2.6875v-24.1875zM48.8695,48.375h-3.182c-1.48081,0 -2.6875,-1.204 -2.6875,-2.6875v-24.1875h5.375v24.1875c0,0.946 0.1935,1.84363 0.4945,2.6875zM29.5625,134.375c-4.44513,0 -8.0625,-3.61738 -8.0625,-8.0625v-96.75c0,-4.44513 3.61737,-8.0625 8.0625,-8.0625h8.0625v24.1875c0,4.44512 3.61738,8.0625 8.0625,8.0625h10.75h37.625h10.75c4.44512,0 8.0625,-3.61738 8.0625,-8.0625v-19.44675l13.83525,14.19c1.47544,1.51306 2.28975,3.51256 2.28975,5.62763v50.82869c-0.88688,-0.08062 -1.77912,-0.13706 -2.6875,-0.13706c-4.84019,0 -9.40087,1.19325 -13.4375,3.26263v-19.38762c0,-4.44513 -3.61738,-8.0625 -8.0625,-8.0625h-59.125c-4.44512,0 -8.0625,3.61737 -8.0625,8.0625v37.625c0,4.44512 3.61738,8.0625 8.0625,8.0625h51.0625c0,2.79769 0.41656,5.49594 1.14487,8.0625zM97.26331,120.9375h-51.57581c-1.48081,0 -2.6875,-1.204 -2.6875,-2.6875v-2.6875h55.80325c-0.67456,1.72 -1.19594,3.51525 -1.53994,5.375zM101.566,110.1875h-58.566v-29.5625c0,-1.4835 1.20669,-2.6875 2.6875,-2.6875h59.125c1.48081,0 2.6875,1.204 2.6875,2.6875v22.90019c-2.3005,1.90275 -4.29462,4.15756 -5.934,6.66231zM126.3125,150.5c-13.33538,0 -24.1875,-10.84944 -24.1875,-24.1875c0,-13.33806 10.85212,-24.1875 24.1875,-24.1875c13.33538,0 24.1875,10.84944 24.1875,24.1875c0,13.33806 -10.85212,24.1875 -24.1875,24.1875z" fill="url(#color-4)"/><path d="M123.62231,130.57219l-6.15975,-6.15975l-3.80013,3.80012l6.15975,6.15975c1.04812,1.05081 2.42413,1.57219 3.80281,1.57219c1.37869,0 2.75469,-0.52138 3.80281,-1.57219l14.22225,-14.22225l-3.80012,-3.80013z" fill="url(#color-5)"/></g></g></svg>