<svg xmlns="http://www.w3.org/2000/svg" xmlns:xlink="http://www.w3.org/1999/xlink" version="1.1" viewBox="0 0 172 172"><g fill="none" fill-rule="nonzero" stroke="none" stroke-width="1" stroke-linecap="butt" stroke-linejoin="miter" stroke-miterlimit="10" stroke-dasharray="" stroke-dashoffset="0" font-family="none" font-weight="none" font-size="none" text-anchor="none" style="mix-blend-mode: normal"><path d="M0,172v-172h172v172z" fill="none"/><g fill="#2ecc71"><path d="M68.8,0v82.56h-55.255l23.3275,-23.3275c1.11531,-1.03469 1.41094,-2.67406 0.73906,-4.03125c-0.65844,-1.37062 -2.15,-2.12312 -3.64156,-1.88125c-0.76594,0.08063 -1.49156,0.43 -2.0425,0.9675l-29.24,29.24l-2.365,2.4725l2.365,2.4725l29.24,29.24c1.37063,1.37063 3.57438,1.37063 4.945,0c1.37063,-1.37062 1.37063,-3.57437 0,-4.945l-23.3275,-23.3275h55.255v82.56h6.88v-85.355c0.09406,-0.45687 0.09406,-0.94062 0,-1.3975v-85.2475zM96.32,0v84.925c-0.20156,0.67188 -0.20156,1.37063 0,2.0425v85.0325h6.88v-82.56h55.255l-23.3275,23.3275c-1.37062,1.37063 -1.37062,3.57438 0,4.945c1.37063,1.37063 3.57438,1.37063 4.945,0l29.24,-29.24l2.365,-2.4725l-2.365,-2.4725l-29.24,-29.24c-0.71219,-0.76594 -1.74687,-1.15562 -2.795,-1.075c-0.14781,0.02688 -0.29562,0.06719 -0.43,0.1075c-1.29,0.22844 -2.32469,1.16906 -2.6875,2.41875c-0.36281,1.26313 0.01344,2.60688 0.9675,3.49375l23.3275,23.3275h-55.255v-82.56z"/></g></g></svg>