<svg enable-background="new 0 0 32 32" height="512" viewBox="0 0 32 32" width="512" xmlns="http://www.w3.org/2000/svg"><path d="m26 32h-20c-3.314 0-6-2.686-6-6v-20c0-3.314 2.686-6 6-6h20c3.314 0 6 2.686 6 6v20c0 3.314-2.686 6-6 6z" fill="#e3f8fa"/><path d="m20.667 16.667h-4.667c-.368 0-.667-.299-.667-.667s.299-.667.667-.667h4.667c.368 0 .667.299.667.667-.001.368-.299.667-.667.667z" fill="#26c6da"/><path d="m23.333 20h-7.333c-.368 0-.667-.299-.667-.667s.299-.667.667-.667h7.333c.368 0 .667.299.667.667s-.298.667-.667.667z" fill="#8ce1eb"/><g fill="#26c6da"><path d="m20.667 23.333h-4.667c-.368 0-.667-.299-.667-.667s.299-.666.667-.666h4.667c.368 0 .667.299.667.667s-.299.666-.667.666z"/><path d="m22.833 9.333h-6.333c-.643 0-1.167.523-1.167 1.167v1.667c0 .643.523 1.167 1.167 1.167h6.333c.643 0 1.167-.523 1.167-1.167v-1.667c0-.643-.523-1.167-1.167-1.167z"/><path d="m13.84 10.967-2.333-2.167c-.146-.135-.358-.17-.54-.092-.182.079-.3.259-.3.458v1.5h-2c-.369.001-.667.299-.667.667s.298.667.667.667h2v1.5c0 .199.118.379.3.458.064.028.132.042.2.042.124 0 .246-.046.34-.133l2.333-2.167c.102-.095.16-.228.16-.367s-.058-.271-.16-.366z"/></g></svg>