<svg version="1.1" xmlns="http://www.w3.org/2000/svg" xmlns:xlink="http://www.w3.org/1999/xlink" viewBox="0 0 172 172"><g transform=""><g fill="none" fill-rule="nonzero" stroke="none" stroke-width="1" stroke-linecap="butt" stroke-linejoin="miter" stroke-miterlimit="10" stroke-dasharray="" stroke-dashoffset="0" font-family="none" font-weight="none" font-size="none" text-anchor="none" style="mix-blend-mode: normal"><path d="M0,172v-172h172v172z" fill="none"></path><g><path d="M27.95,161.25v-150.5h78.6599l37.4401,37.4401v113.0599z" fill="#ffffff"></path><path d="M105.7198,12.9l36.1802,36.1802v110.0198h-111.8v-146.2h75.6198M107.5,8.6h-81.7v154.8h120.4v-116.1l-38.7,-38.7z" fill="#3498db"></path><path d="M105.35,49.45v-38.7h1.2599l37.4401,37.4401v1.2599z" fill="#ffffff"></path><path d="M107.5,14.6802l32.6198,32.6198h-32.6198v-32.6198M107.5,8.6h-4.3v43h43v-4.3l-38.7,-38.7zM44.7243,78.4406v13.9234h7.0649v-13.9234h6.7553v34.7612h-6.7553v-14.5426h-7.0649v14.5426h-6.751v-34.7612zM69.5998,84.6799h-6.1361v-6.2393h19.0834v6.2393h-6.1877v28.5219h-6.7553v-28.5219zM108.6524,101.0328c-0.2064,-3.3024 -0.4128,-7.7916 -0.3612,-11.5025h-0.1032c-0.6192,3.7109 -1.548,7.9894 -2.2188,10.6726l-3.0444,12.4313h-4.7472l-2.8853,-12.2249c-0.6708,-2.7821 -1.5996,-7.1165 -2.1672,-10.879h-0.1032c-0.1032,3.7625 -0.3612,8.1485 -0.516,11.6014l-0.6192,12.0701h-5.7749l2.4768,-34.7612h7.1681l2.7821,12.5861c0.9288,4.386 1.806,8.2517 2.4252,12.169h0.1548c0.516,-3.8657 1.29,-7.7873 2.1672,-12.169l2.7821,-12.5861h7.1165l2.1156,34.7612h-6.0329zM121.5653,78.4406h6.7553v29.0379h8.8709v5.7233h-15.6262z" fill="#3498db"></path></g><path d="" fill="none"></path></g></g></svg>