<svg enable-background="new 0 0 32 32" height="512" viewBox="0 0 32 32" width="512" xmlns="http://www.w3.org/2000/svg"><path d="m26 32h-20c-3.314 0-6-2.686-6-6v-20c0-3.314 2.686-6 6-6h20c3.314 0 6 2.686 6 6v20c0 3.314-2.686 6-6 6z" fill="#e3f8fa"/><path d="m22.833 8h-8.333c-.643 0-1.167.523-1.167 1.167v1.667c0 .643.523 1.167 1.167 1.167h8.333c.644-.001 1.167-.524 1.167-1.168v-1.666c0-.644-.523-1.167-1.167-1.167z" fill="#26c6da"/><path d="m22.833 14h-8.333c-.643 0-1.167.523-1.167 1.167v1.667c0 .643.523 1.167 1.167 1.167h8.333c.644-.001 1.167-.524 1.167-1.168v-1.667c0-.643-.523-1.166-1.167-1.166z" fill="#8ce1eb"/><g fill="#26c6da"><path d="m22.833 20h-8.333c-.643 0-1.167.523-1.167 1.167v1.667c0 .643.523 1.167 1.167 1.167h8.333c.644-.001 1.167-.524 1.167-1.168v-1.667c0-.643-.523-1.166-1.167-1.166z"/><path d="m11.033 18.625c-.182.078-.395.044-.54-.092l-2.333-2.167c-.102-.094-.16-.227-.16-.366s.058-.272.16-.367l2.333-2.167c.094-.088.217-.133.34-.133.068 0 .135.014.2.042.182.079.3.259.3.458v4.333c0 .2-.118.38-.3.459z"/></g></svg>