<svg xmlns="http://www.w3.org/2000/svg" xmlns:xlink="http://www.w3.org/1999/xlink" version="1.1" viewBox="0 0 172 172"><g fill="none" fill-rule="nonzero" stroke="none" stroke-width="1" stroke-linecap="butt" stroke-linejoin="miter" stroke-miterlimit="10" stroke-dasharray="" stroke-dashoffset="0" font-family="none" font-weight="none" font-size="none" text-anchor="none" style="mix-blend-mode: normal"><path d="M0,172v-172h172v172z" fill="none"/><g fill="#2ecc71"><path d="M17.2,149.06667c-3.1648,0 -5.73333,-2.5628 -5.73333,-5.73333c0,-9.202 2.78067,-88.5628 97.46667,-91.6416v-23.02507c0,-2.31627 1.39893,-4.41467 3.53747,-5.2976c2.14427,-0.8944 4.6096,-0.3956 6.24933,1.24413l40.13333,40.13333c2.24173,2.24173 2.24173,5.8652 0,8.10693l-40.13333,40.13333c-1.63973,1.63973 -4.10507,2.1328 -6.24933,1.24413c-2.13853,-0.88293 -3.53747,-2.98133 -3.53747,-5.2976v-22.85307c-35.088,0.9804 -60.95107,11.03093 -75.0092,29.22853c-10.86467,14.0524 -10.9908,27.88693 -10.9908,28.02453c0,3.17053 -2.56853,5.73333 -5.73333,5.73333z"/></g></g></svg>